<mxfile host="app.diagrams.net" modified="2022-11-25T06:24:04.360Z" agent="5.0 (Windows NT 10.0; Win64; x64) AppleWebKit/537.36 (KHTML, like Gecko) Chrome/107.0.0.0 Safari/537.36" etag="y1h79dG-rsec07dQzmgX" version="20.3.2" type="github">
  <diagram id="o9tZNeWm0_lP8Xm53Yng" name="Page-1">
    <mxGraphModel dx="1008" dy="449" grid="1" gridSize="10" guides="1" tooltips="1" connect="1" arrows="1" fold="1" page="1" pageScale="1" pageWidth="1654" pageHeight="1169" math="0" shadow="0">
      <root>
        <mxCell id="0" />
        <mxCell id="1" parent="0" />
        <mxCell id="3cqRgS8WyW1Py6DgZ6-4-2" value="Partner" style="shape=mxgraph.signs.people.man_1;html=1;pointerEvents=1;fillColor=#000000;strokeColor=none;verticalLabelPosition=bottom;verticalAlign=top;align=center;fontFamily=Verdana;shadow=1;" parent="1" vertex="1">
          <mxGeometry x="160" y="190" width="37" height="98" as="geometry" />
        </mxCell>
        <mxCell id="3cqRgS8WyW1Py6DgZ6-4-5" style="edgeStyle=orthogonalEdgeStyle;rounded=0;orthogonalLoop=1;jettySize=auto;html=1;fontFamily=Verdana;" parent="1" source="3cqRgS8WyW1Py6DgZ6-4-3" target="3cqRgS8WyW1Py6DgZ6-4-4" edge="1">
          <mxGeometry relative="1" as="geometry" />
        </mxCell>
        <mxCell id="3cqRgS8WyW1Py6DgZ6-4-18" style="edgeStyle=orthogonalEdgeStyle;rounded=0;orthogonalLoop=1;jettySize=auto;html=1;entryX=0;entryY=0.5;entryDx=0;entryDy=0;fontFamily=Verdana;" parent="1" source="3cqRgS8WyW1Py6DgZ6-4-3" target="3cqRgS8WyW1Py6DgZ6-4-8" edge="1">
          <mxGeometry relative="1" as="geometry">
            <Array as="points">
              <mxPoint x="300" y="350" />
            </Array>
          </mxGeometry>
        </mxCell>
        <mxCell id="3cqRgS8WyW1Py6DgZ6-4-20" style="edgeStyle=orthogonalEdgeStyle;rounded=0;orthogonalLoop=1;jettySize=auto;html=1;entryX=0;entryY=0.5;entryDx=0;entryDy=0;fontFamily=Verdana;" parent="1" source="3cqRgS8WyW1Py6DgZ6-4-3" target="3cqRgS8WyW1Py6DgZ6-4-14" edge="1">
          <mxGeometry relative="1" as="geometry">
            <Array as="points">
              <mxPoint x="300" y="470" />
            </Array>
          </mxGeometry>
        </mxCell>
        <mxCell id="3cqRgS8WyW1Py6DgZ6-4-45" style="edgeStyle=orthogonalEdgeStyle;rounded=0;orthogonalLoop=1;jettySize=auto;html=1;entryX=0;entryY=0.5;entryDx=0;entryDy=0;fontFamily=Verdana;" parent="1" source="3cqRgS8WyW1Py6DgZ6-4-3" target="3cqRgS8WyW1Py6DgZ6-4-32" edge="1">
          <mxGeometry relative="1" as="geometry">
            <Array as="points">
              <mxPoint x="300" y="710" />
            </Array>
          </mxGeometry>
        </mxCell>
        <mxCell id="3cqRgS8WyW1Py6DgZ6-4-55" style="edgeStyle=orthogonalEdgeStyle;rounded=0;orthogonalLoop=1;jettySize=auto;html=1;entryX=0;entryY=0.5;entryDx=0;entryDy=0;fontFamily=Verdana;" parent="1" source="3cqRgS8WyW1Py6DgZ6-4-3" target="3cqRgS8WyW1Py6DgZ6-4-47" edge="1">
          <mxGeometry relative="1" as="geometry">
            <Array as="points">
              <mxPoint x="300" y="590" />
            </Array>
          </mxGeometry>
        </mxCell>
        <mxCell id="3cqRgS8WyW1Py6DgZ6-4-3" value="Login to compliance tool kit" style="rounded=1;whiteSpace=wrap;html=1;fontFamily=Verdana;fillColor=#b1ddf0;strokeColor=none;shadow=1;" parent="1" vertex="1">
          <mxGeometry x="240" y="209" width="120" height="60" as="geometry" />
        </mxCell>
        <mxCell id="3cqRgS8WyW1Py6DgZ6-4-21" style="edgeStyle=orthogonalEdgeStyle;rounded=0;orthogonalLoop=1;jettySize=auto;html=1;exitX=1;exitY=0.5;exitDx=0;exitDy=0;entryX=0;entryY=0.5;entryDx=0;entryDy=0;fontFamily=Verdana;" parent="1" source="3cqRgS8WyW1Py6DgZ6-4-4" target="3cqRgS8WyW1Py6DgZ6-4-13" edge="1">
          <mxGeometry relative="1" as="geometry" />
        </mxCell>
        <mxCell id="3cqRgS8WyW1Py6DgZ6-4-4" value="Click &lt;b&gt;Add Project&lt;/b&gt;&amp;nbsp;" style="rounded=1;whiteSpace=wrap;html=1;fontFamily=Verdana;fillColor=#b1ddf0;strokeColor=none;shadow=1;" parent="1" vertex="1">
          <mxGeometry x="400" y="209" width="120" height="60" as="geometry" />
        </mxCell>
        <mxCell id="3cqRgS8WyW1Py6DgZ6-4-23" style="edgeStyle=orthogonalEdgeStyle;rounded=0;orthogonalLoop=1;jettySize=auto;html=1;exitX=1;exitY=0.5;exitDx=0;exitDy=0;entryX=0;entryY=0.5;entryDx=0;entryDy=0;fontFamily=Verdana;" parent="1" source="3cqRgS8WyW1Py6DgZ6-4-6" target="3cqRgS8WyW1Py6DgZ6-4-7" edge="1">
          <mxGeometry relative="1" as="geometry" />
        </mxCell>
        <mxCell id="3cqRgS8WyW1Py6DgZ6-4-6" value="Enter all project configurations" style="rounded=1;whiteSpace=wrap;html=1;fontFamily=Verdana;fillColor=#b1ddf0;strokeColor=none;shadow=1;" parent="1" vertex="1">
          <mxGeometry x="720" y="209" width="120" height="60" as="geometry" />
        </mxCell>
        <mxCell id="3cqRgS8WyW1Py6DgZ6-4-7" value="Save the Project" style="rounded=1;whiteSpace=wrap;html=1;fontFamily=Verdana;fillColor=#b1ddf0;strokeColor=none;shadow=1;" parent="1" vertex="1">
          <mxGeometry x="880" y="209" width="120" height="60" as="geometry" />
        </mxCell>
        <mxCell id="3cqRgS8WyW1Py6DgZ6-4-24" style="edgeStyle=orthogonalEdgeStyle;rounded=0;orthogonalLoop=1;jettySize=auto;html=1;exitX=1;exitY=0.5;exitDx=0;exitDy=0;entryX=0;entryY=0.5;entryDx=0;entryDy=0;fontFamily=Verdana;" parent="1" source="3cqRgS8WyW1Py6DgZ6-4-8" target="3cqRgS8WyW1Py6DgZ6-4-9" edge="1">
          <mxGeometry relative="1" as="geometry" />
        </mxCell>
        <mxCell id="3cqRgS8WyW1Py6DgZ6-4-8" value="Select a Project to view details" style="rounded=1;whiteSpace=wrap;html=1;fontFamily=Verdana;fillColor=#b1ddf0;strokeColor=none;shadow=1;" parent="1" vertex="1">
          <mxGeometry x="400" y="320" width="120" height="60" as="geometry" />
        </mxCell>
        <mxCell id="3cqRgS8WyW1Py6DgZ6-4-25" style="edgeStyle=orthogonalEdgeStyle;rounded=0;orthogonalLoop=1;jettySize=auto;html=1;entryX=0;entryY=0.5;entryDx=0;entryDy=0;fontFamily=Verdana;" parent="1" source="3cqRgS8WyW1Py6DgZ6-4-9" target="3cqRgS8WyW1Py6DgZ6-4-12" edge="1">
          <mxGeometry relative="1" as="geometry" />
        </mxCell>
        <mxCell id="3cqRgS8WyW1Py6DgZ6-4-9" value="Click &lt;b&gt;Add Collection&lt;/b&gt;" style="rounded=1;whiteSpace=wrap;html=1;fontFamily=Verdana;fillColor=#b1ddf0;strokeColor=none;shadow=1;" parent="1" vertex="1">
          <mxGeometry x="560" y="320" width="120" height="60" as="geometry" />
        </mxCell>
        <mxCell id="3cqRgS8WyW1Py6DgZ6-4-27" style="edgeStyle=orthogonalEdgeStyle;rounded=0;orthogonalLoop=1;jettySize=auto;html=1;entryX=0;entryY=0.5;entryDx=0;entryDy=0;fontFamily=Verdana;" parent="1" source="3cqRgS8WyW1Py6DgZ6-4-10" target="3cqRgS8WyW1Py6DgZ6-4-11" edge="1">
          <mxGeometry relative="1" as="geometry" />
        </mxCell>
        <mxCell id="3cqRgS8WyW1Py6DgZ6-4-10" value="Select test cases for a Collection" style="rounded=1;whiteSpace=wrap;html=1;fontFamily=Verdana;fillColor=#b1ddf0;strokeColor=none;shadow=1;" parent="1" vertex="1">
          <mxGeometry x="880" y="320" width="120" height="60" as="geometry" />
        </mxCell>
        <mxCell id="3cqRgS8WyW1Py6DgZ6-4-11" value="Save the collection" style="rounded=1;whiteSpace=wrap;html=1;fontFamily=Verdana;fillColor=#b1ddf0;strokeColor=none;shadow=1;" parent="1" vertex="1">
          <mxGeometry x="1040" y="320" width="120" height="60" as="geometry" />
        </mxCell>
        <mxCell id="3cqRgS8WyW1Py6DgZ6-4-26" style="edgeStyle=orthogonalEdgeStyle;rounded=0;orthogonalLoop=1;jettySize=auto;html=1;entryX=0;entryY=0.5;entryDx=0;entryDy=0;fontFamily=Verdana;" parent="1" source="3cqRgS8WyW1Py6DgZ6-4-12" target="3cqRgS8WyW1Py6DgZ6-4-10" edge="1">
          <mxGeometry relative="1" as="geometry" />
        </mxCell>
        <mxCell id="3cqRgS8WyW1Py6DgZ6-4-12" value="Enter a unique collection name" style="rounded=1;whiteSpace=wrap;html=1;fontFamily=Verdana;fillColor=#b1ddf0;strokeColor=none;shadow=1;" parent="1" vertex="1">
          <mxGeometry x="720" y="320" width="120" height="60" as="geometry" />
        </mxCell>
        <mxCell id="3cqRgS8WyW1Py6DgZ6-4-22" style="edgeStyle=orthogonalEdgeStyle;rounded=0;orthogonalLoop=1;jettySize=auto;html=1;entryX=0;entryY=0.5;entryDx=0;entryDy=0;fontFamily=Verdana;" parent="1" source="3cqRgS8WyW1Py6DgZ6-4-13" target="3cqRgS8WyW1Py6DgZ6-4-6" edge="1">
          <mxGeometry relative="1" as="geometry" />
        </mxCell>
        <mxCell id="3cqRgS8WyW1Py6DgZ6-4-13" value="Enter a unique project name" style="rounded=1;whiteSpace=wrap;html=1;fontFamily=Verdana;fillColor=#b1ddf0;strokeColor=none;shadow=1;" parent="1" vertex="1">
          <mxGeometry x="560" y="209" width="120" height="60" as="geometry" />
        </mxCell>
        <mxCell id="3cqRgS8WyW1Py6DgZ6-4-28" style="edgeStyle=orthogonalEdgeStyle;rounded=0;orthogonalLoop=1;jettySize=auto;html=1;entryX=0;entryY=0.5;entryDx=0;entryDy=0;fontFamily=Verdana;" parent="1" source="3cqRgS8WyW1Py6DgZ6-4-14" target="3cqRgS8WyW1Py6DgZ6-4-15" edge="1">
          <mxGeometry relative="1" as="geometry" />
        </mxCell>
        <mxCell id="3cqRgS8WyW1Py6DgZ6-4-14" value="Select a Project to view details" style="rounded=1;whiteSpace=wrap;html=1;fontFamily=Verdana;fillColor=#b1ddf0;strokeColor=none;shadow=1;" parent="1" vertex="1">
          <mxGeometry x="400" y="440" width="120" height="60" as="geometry" />
        </mxCell>
        <mxCell id="3cqRgS8WyW1Py6DgZ6-4-29" style="edgeStyle=orthogonalEdgeStyle;rounded=0;orthogonalLoop=1;jettySize=auto;html=1;entryX=0;entryY=0.5;entryDx=0;entryDy=0;fontFamily=Verdana;" parent="1" source="3cqRgS8WyW1Py6DgZ6-4-15" target="3cqRgS8WyW1Py6DgZ6-4-16" edge="1">
          <mxGeometry relative="1" as="geometry" />
        </mxCell>
        <mxCell id="3cqRgS8WyW1Py6DgZ6-4-15" value="Find the collection you want to Run" style="rounded=1;whiteSpace=wrap;html=1;fontFamily=Verdana;fillColor=#b1ddf0;strokeColor=none;shadow=1;" parent="1" vertex="1">
          <mxGeometry x="560" y="440" width="120" height="60" as="geometry" />
        </mxCell>
        <mxCell id="3cqRgS8WyW1Py6DgZ6-4-30" style="edgeStyle=orthogonalEdgeStyle;rounded=0;orthogonalLoop=1;jettySize=auto;html=1;entryX=0;entryY=0.5;entryDx=0;entryDy=0;fontFamily=Verdana;" parent="1" source="3cqRgS8WyW1Py6DgZ6-4-16" target="3cqRgS8WyW1Py6DgZ6-4-17" edge="1">
          <mxGeometry relative="1" as="geometry" />
        </mxCell>
        <mxCell id="3cqRgS8WyW1Py6DgZ6-4-16" value="Change project configurations (if needed)&amp;nbsp;" style="rounded=1;whiteSpace=wrap;html=1;fontFamily=Verdana;fillColor=#b1ddf0;strokeColor=none;shadow=1;" parent="1" vertex="1">
          <mxGeometry x="721" y="440" width="120" height="60" as="geometry" />
        </mxCell>
        <mxCell id="3cqRgS8WyW1Py6DgZ6-4-31" style="edgeStyle=orthogonalEdgeStyle;rounded=0;orthogonalLoop=1;jettySize=auto;html=1;fontFamily=Verdana;" parent="1" source="3cqRgS8WyW1Py6DgZ6-4-17" target="3cqRgS8WyW1Py6DgZ6-4-19" edge="1">
          <mxGeometry relative="1" as="geometry" />
        </mxCell>
        <mxCell id="3cqRgS8WyW1Py6DgZ6-4-17" value="Click &lt;b&gt;Run &lt;/b&gt;against the collection" style="rounded=1;whiteSpace=wrap;html=1;fontFamily=Verdana;fillColor=#b1ddf0;strokeColor=none;shadow=1;" parent="1" vertex="1">
          <mxGeometry x="880" y="440" width="120" height="60" as="geometry" />
        </mxCell>
        <mxCell id="3cqRgS8WyW1Py6DgZ6-4-19" value="Follow the instructions as provided during run" style="rounded=1;whiteSpace=wrap;html=1;fontFamily=Verdana;fillColor=#b1ddf0;strokeColor=none;shadow=1;" parent="1" vertex="1">
          <mxGeometry x="1040" y="440" width="120" height="60" as="geometry" />
        </mxCell>
        <mxCell id="3cqRgS8WyW1Py6DgZ6-4-35" style="edgeStyle=orthogonalEdgeStyle;rounded=0;orthogonalLoop=1;jettySize=auto;html=1;exitX=1;exitY=0.5;exitDx=0;exitDy=0;entryX=0;entryY=0.5;entryDx=0;entryDy=0;fontFamily=Verdana;" parent="1" source="3cqRgS8WyW1Py6DgZ6-4-32" target="3cqRgS8WyW1Py6DgZ6-4-33" edge="1">
          <mxGeometry relative="1" as="geometry" />
        </mxCell>
        <mxCell id="3cqRgS8WyW1Py6DgZ6-4-32" value="Go to &lt;b&gt;Biometrics&lt;/b&gt; dash board" style="rounded=1;whiteSpace=wrap;html=1;fontFamily=Verdana;fillColor=#b1ddf0;strokeColor=none;shadow=1;" parent="1" vertex="1">
          <mxGeometry x="400" y="680" width="120" height="60" as="geometry" />
        </mxCell>
        <mxCell id="3cqRgS8WyW1Py6DgZ6-4-38" style="edgeStyle=orthogonalEdgeStyle;rounded=0;orthogonalLoop=1;jettySize=auto;html=1;entryX=0;entryY=0.5;entryDx=0;entryDy=0;fontFamily=Verdana;" parent="1" source="3cqRgS8WyW1Py6DgZ6-4-33" target="3cqRgS8WyW1Py6DgZ6-4-36" edge="1">
          <mxGeometry relative="1" as="geometry" />
        </mxCell>
        <mxCell id="3cqRgS8WyW1Py6DgZ6-4-33" value="Click &lt;b&gt;Add Biometrics&lt;/b&gt;" style="rounded=1;whiteSpace=wrap;html=1;fontFamily=Verdana;fillColor=#b1ddf0;strokeColor=none;shadow=1;" parent="1" vertex="1">
          <mxGeometry x="560" y="680" width="120" height="60" as="geometry" />
        </mxCell>
        <mxCell id="3cqRgS8WyW1Py6DgZ6-4-40" style="edgeStyle=orthogonalEdgeStyle;rounded=0;orthogonalLoop=1;jettySize=auto;html=1;exitX=1;exitY=0.5;exitDx=0;exitDy=0;entryX=0;entryY=0.5;entryDx=0;entryDy=0;fontFamily=Verdana;" parent="1" source="3cqRgS8WyW1Py6DgZ6-4-36" target="3cqRgS8WyW1Py6DgZ6-4-39" edge="1">
          <mxGeometry relative="1" as="geometry" />
        </mxCell>
        <mxCell id="3cqRgS8WyW1Py6DgZ6-4-36" value="Enter a unique biometric data name" style="rounded=1;whiteSpace=wrap;html=1;fontFamily=Verdana;fillColor=#b1ddf0;strokeColor=none;shadow=1;" parent="1" vertex="1">
          <mxGeometry x="720" y="680" width="120" height="60" as="geometry" />
        </mxCell>
        <mxCell id="3cqRgS8WyW1Py6DgZ6-4-44" style="edgeStyle=orthogonalEdgeStyle;rounded=0;orthogonalLoop=1;jettySize=auto;html=1;entryX=0;entryY=0.5;entryDx=0;entryDy=0;fontFamily=Verdana;" parent="1" source="3cqRgS8WyW1Py6DgZ6-4-39" target="3cqRgS8WyW1Py6DgZ6-4-41" edge="1">
          <mxGeometry relative="1" as="geometry" />
        </mxCell>
        <mxCell id="3cqRgS8WyW1Py6DgZ6-4-39" value="Provide purpose and other configurations" style="rounded=1;whiteSpace=wrap;html=1;fontFamily=Verdana;fillColor=#b1ddf0;strokeColor=none;shadow=1;" parent="1" vertex="1">
          <mxGeometry x="880" y="680" width="120" height="60" as="geometry" />
        </mxCell>
        <mxCell id="3cqRgS8WyW1Py6DgZ6-4-41" value="Upload the biometric Zip and click &lt;b&gt;Save&lt;/b&gt;" style="rounded=1;whiteSpace=wrap;html=1;fontFamily=Verdana;fillColor=#b1ddf0;strokeColor=none;shadow=1;" parent="1" vertex="1">
          <mxGeometry x="1040" y="680" width="120" height="60" as="geometry" />
        </mxCell>
        <mxCell id="3cqRgS8WyW1Py6DgZ6-4-46" style="edgeStyle=orthogonalEdgeStyle;rounded=0;orthogonalLoop=1;jettySize=auto;html=1;exitX=1;exitY=0.5;exitDx=0;exitDy=0;entryX=0;entryY=0.5;entryDx=0;entryDy=0;fontFamily=Verdana;" parent="1" source="3cqRgS8WyW1Py6DgZ6-4-47" target="3cqRgS8WyW1Py6DgZ6-4-49" edge="1">
          <mxGeometry relative="1" as="geometry" />
        </mxCell>
        <mxCell id="3cqRgS8WyW1Py6DgZ6-4-47" value="Select a Project to view details" style="rounded=1;whiteSpace=wrap;html=1;fontFamily=Verdana;fillColor=#b1ddf0;strokeColor=none;shadow=1;" parent="1" vertex="1">
          <mxGeometry x="400" y="560" width="120" height="60" as="geometry" />
        </mxCell>
        <mxCell id="3cqRgS8WyW1Py6DgZ6-4-48" style="edgeStyle=orthogonalEdgeStyle;rounded=0;orthogonalLoop=1;jettySize=auto;html=1;entryX=0;entryY=0.5;entryDx=0;entryDy=0;fontFamily=Verdana;" parent="1" source="3cqRgS8WyW1Py6DgZ6-4-49" target="3cqRgS8WyW1Py6DgZ6-4-51" edge="1">
          <mxGeometry relative="1" as="geometry" />
        </mxCell>
        <mxCell id="3cqRgS8WyW1Py6DgZ6-4-49" value="Find the collection for which you want to view run details" style="rounded=1;whiteSpace=wrap;html=1;fontFamily=Verdana;fillColor=#b1ddf0;strokeColor=none;shadow=1;" parent="1" vertex="1">
          <mxGeometry x="560" y="560" width="120" height="60" as="geometry" />
        </mxCell>
        <mxCell id="3cqRgS8WyW1Py6DgZ6-4-50" style="edgeStyle=orthogonalEdgeStyle;rounded=0;orthogonalLoop=1;jettySize=auto;html=1;exitX=1;exitY=0.5;exitDx=0;exitDy=0;entryX=0;entryY=0.5;entryDx=0;entryDy=0;fontFamily=Verdana;" parent="1" source="3cqRgS8WyW1Py6DgZ6-4-51" target="3cqRgS8WyW1Py6DgZ6-4-53" edge="1">
          <mxGeometry relative="1" as="geometry" />
        </mxCell>
        <mxCell id="3cqRgS8WyW1Py6DgZ6-4-51" value="Click &lt;b&gt;Run History&lt;/b&gt; against the collection" style="rounded=1;whiteSpace=wrap;html=1;fontFamily=Verdana;fillColor=#b1ddf0;strokeColor=none;shadow=1;" parent="1" vertex="1">
          <mxGeometry x="720" y="560" width="120" height="60" as="geometry" />
        </mxCell>
        <mxCell id="3cqRgS8WyW1Py6DgZ6-4-52" style="edgeStyle=orthogonalEdgeStyle;rounded=0;orthogonalLoop=1;jettySize=auto;html=1;entryX=0;entryY=0.5;entryDx=0;entryDy=0;fontFamily=Verdana;" parent="1" source="3cqRgS8WyW1Py6DgZ6-4-53" target="3cqRgS8WyW1Py6DgZ6-4-54" edge="1">
          <mxGeometry relative="1" as="geometry" />
        </mxCell>
        <mxCell id="3cqRgS8WyW1Py6DgZ6-4-53" value="Select the Run which you want to view from the list" style="rounded=1;whiteSpace=wrap;html=1;fontFamily=Verdana;fillColor=#b1ddf0;strokeColor=none;shadow=1;" parent="1" vertex="1">
          <mxGeometry x="880" y="560" width="120" height="60" as="geometry" />
        </mxCell>
        <mxCell id="3cqRgS8WyW1Py6DgZ6-4-54" value="View the request and response&amp;nbsp; details for each test case" style="rounded=1;whiteSpace=wrap;html=1;fontFamily=Verdana;fillColor=#b1ddf0;strokeColor=none;shadow=1;" parent="1" vertex="1">
          <mxGeometry x="1040" y="560" width="120" height="60" as="geometry" />
        </mxCell>
        <mxCell id="PNBNVaZcnI2yOFs9S1Hf-1" value="&lt;b&gt;Adding a Project&lt;/b&gt;" style="text;html=1;align=center;verticalAlign=middle;resizable=0;points=[];autosize=1;strokeColor=none;fillColor=none;" vertex="1" parent="1">
          <mxGeometry x="560" y="170" width="120" height="30" as="geometry" />
        </mxCell>
        <mxCell id="PNBNVaZcnI2yOFs9S1Hf-3" value="&lt;b&gt;Adding a Collection&lt;/b&gt;" style="text;html=1;align=center;verticalAlign=middle;resizable=0;points=[];autosize=1;strokeColor=none;fillColor=none;" vertex="1" parent="1">
          <mxGeometry x="550" y="288" width="140" height="30" as="geometry" />
        </mxCell>
        <mxCell id="PNBNVaZcnI2yOFs9S1Hf-4" value="&lt;b&gt;Run a Test&lt;/b&gt;" style="text;html=1;align=center;verticalAlign=middle;resizable=0;points=[];autosize=1;strokeColor=none;fillColor=none;" vertex="1" parent="1">
          <mxGeometry x="580" y="410" width="80" height="30" as="geometry" />
        </mxCell>
        <mxCell id="PNBNVaZcnI2yOFs9S1Hf-5" value="&lt;b&gt;View Run details&lt;/b&gt;" style="text;html=1;align=center;verticalAlign=middle;resizable=0;points=[];autosize=1;strokeColor=none;fillColor=none;" vertex="1" parent="1">
          <mxGeometry x="550" y="530" width="120" height="30" as="geometry" />
        </mxCell>
        <mxCell id="PNBNVaZcnI2yOFs9S1Hf-6" value="&lt;b&gt;Add test data (biometrics)&lt;/b&gt;" style="text;html=1;align=center;verticalAlign=middle;resizable=0;points=[];autosize=1;strokeColor=none;fillColor=none;" vertex="1" parent="1">
          <mxGeometry x="550" y="650" width="170" height="30" as="geometry" />
        </mxCell>
      </root>
    </mxGraphModel>
  </diagram>
</mxfile>
